<svg xmlns="http://www.w3.org/2000/svg" viewBox="0 0 92 92" shape-rendering="crispEdges" role="img" aria-label="Duckle"><circle cx="46.0" cy="46.0" r="45.0" fill="#0c0e12"/><g fill="#ff7a45"><rect x="22" y="16" width="12" height="1"/><rect x="40" y="16" width="6" height="1"/><rect x="21" y="17" width="13" height="1"/><rect x="38" y="17" width="13" height="1"/><rect x="21" y="18" width="13" height="1"/><rect x="37" y="18" width="17" height="1"/><rect x="21" y="19" width="13" height="1"/><rect x="37" y="19" width="19" height="1"/><rect x="21" y="20" width="13" height="1"/><rect x="37" y="20" width="21" height="1"/><rect x="21" y="21" width="13" height="1"/><rect x="37" y="21" width="22" height="1"/><rect x="21" y="22" width="13" height="1"/><rect x="37" y="22" width="24" height="1"/><rect x="21" y="23" width="13" height="1"/><rect x="37" y="23" width="25" height="1"/><rect x="21" y="24" width="13" height="1"/><rect x="37" y="24" width="26" height="1"/><rect x="21" y="25" width="13" height="1"/><rect x="37" y="25" width="5" height="1"/><rect x="49" y="25" width="15" height="1"/><rect x="21" y="26" width="13" height="1"/><rect x="37" y="26" width="2" height="1"/><rect x="52" y="26" width="12" height="1"/><rect x="21" y="27" width="13" height="1"/><rect x="37" y="27" width="1" height="1"/><rect x="54" y="27" width="11" height="1"/><rect x="21" y="28" width="13" height="1"/><rect x="45" y="28" width="4" height="1"/><rect x="55" y="28" width="11" height="1"/><rect x="21" y="29" width="13" height="1"/><rect x="42" y="29" width="10" height="1"/><rect x="57" y="29" width="9" height="1"/><rect x="21" y="30" width="13" height="1"/><rect x="40" y="30" width="14" height="1"/><rect x="58" y="30" width="9" height="1"/><rect x="21" y="31" width="13" height="1"/><rect x="39" y="31" width="16" height="1"/><rect x="58" y="31" width="9" height="1"/><rect x="21" y="32" width="13" height="1"/><rect x="39" y="32" width="17" height="1"/><rect x="59" y="32" width="9" height="1"/><rect x="21" y="33" width="13" height="1"/><rect x="38" y="33" width="19" height="1"/><rect x="60" y="33" width="8" height="1"/><rect x="21" y="34" width="13" height="1"/><rect x="37" y="34" width="20" height="1"/><rect x="60" y="34" width="9" height="1"/><rect x="21" y="35" width="13" height="1"/><rect x="37" y="35" width="2" height="1"/><rect x="44" y="35" width="6" height="1"/><rect x="53" y="35" width="5" height="1"/><rect x="61" y="35" width="8" height="1"/><rect x="21" y="36" width="13" height="1"/><rect x="37" y="36" width="1" height="1"/><rect x="44" y="36" width="5" height="1"/><rect x="55" y="36" width="4" height="1"/><rect x="61" y="36" width="8" height="1"/><rect x="21" y="37" width="13" height="1"/><rect x="40" y="37" width="2" height="1"/><rect x="44" y="37" width="5" height="1"/><rect x="51" y="37" width="2" height="1"/><rect x="56" y="37" width="3" height="1"/><rect x="62" y="37" width="8" height="1"/><rect x="21" y="38" width="13" height="1"/><rect x="43" y="38" width="7" height="1"/><rect x="56" y="38" width="4" height="1"/><rect x="62" y="38" width="8" height="1"/><rect x="21" y="39" width="13" height="1"/><rect x="42" y="39" width="2" height="1"/><rect x="48" y="39" width="3" height="1"/><rect x="57" y="39" width="3" height="1"/><rect x="62" y="39" width="8" height="1"/><rect x="21" y="40" width="13" height="1"/><rect x="40" y="40" width="4" height="1"/><rect x="48" y="40" width="4" height="1"/><rect x="58" y="40" width="2" height="1"/><rect x="63" y="40" width="7" height="1"/><rect x="21" y="41" width="13" height="1"/><rect x="39" y="41" width="4" height="1"/><rect x="44" y="41" width="9" height="1"/><rect x="58" y="41" width="3" height="1"/><rect x="63" y="41" width="7" height="1"/><rect x="21" y="42" width="13" height="1"/><rect x="38" y="42" width="6" height="1"/><rect x="48" y="42" width="6" height="1"/><rect x="58" y="42" width="3" height="1"/><rect x="63" y="42" width="7" height="1"/><rect x="21" y="43" width="13" height="1"/><rect x="38" y="43" width="16" height="1"/><rect x="57" y="43" width="4" height="1"/><rect x="63" y="43" width="8" height="1"/><rect x="21" y="44" width="13" height="1"/><rect x="39" y="44" width="15" height="1"/><rect x="57" y="44" width="4" height="1"/><rect x="63" y="44" width="8" height="1"/><rect x="21" y="45" width="13" height="1"/><rect x="40" y="45" width="13" height="1"/><rect x="56" y="45" width="5" height="1"/><rect x="63" y="45" width="8" height="1"/><rect x="21" y="46" width="13" height="1"/><rect x="41" y="46" width="11" height="1"/><rect x="56" y="46" width="5" height="1"/><rect x="63" y="46" width="8" height="1"/><rect x="21" y="47" width="13" height="1"/><rect x="43" y="47" width="7" height="1"/><rect x="55" y="47" width="6" height="1"/><rect x="63" y="47" width="8" height="1"/><rect x="21" y="48" width="11" height="1"/><rect x="53" y="48" width="8" height="1"/><rect x="63" y="48" width="8" height="1"/><rect x="21" y="49" width="9" height="1"/><rect x="51" y="49" width="10" height="1"/><rect x="63" y="49" width="8" height="1"/><rect x="21" y="50" width="8" height="1"/><rect x="33" y="50" width="28" height="1"/><rect x="63" y="50" width="8" height="1"/><rect x="21" y="51" width="7" height="1"/><rect x="31" y="51" width="30" height="1"/><rect x="63" y="51" width="7" height="1"/><rect x="21" y="52" width="7" height="1"/><rect x="30" y="52" width="31" height="1"/><rect x="63" y="52" width="7" height="1"/><rect x="21" y="53" width="6" height="1"/><rect x="30" y="53" width="31" height="1"/><rect x="63" y="53" width="7" height="1"/><rect x="21" y="54" width="6" height="1"/><rect x="29" y="54" width="31" height="1"/><rect x="63" y="54" width="7" height="1"/><rect x="21" y="55" width="6" height="1"/><rect x="29" y="55" width="31" height="1"/><rect x="62" y="55" width="8" height="1"/><rect x="21" y="56" width="6" height="1"/><rect x="30" y="56" width="30" height="1"/><rect x="62" y="56" width="7" height="1"/><rect x="21" y="57" width="7" height="1"/><rect x="30" y="57" width="29" height="1"/><rect x="62" y="57" width="7" height="1"/><rect x="21" y="58" width="7" height="1"/><rect x="31" y="58" width="28" height="1"/><rect x="61" y="58" width="8" height="1"/><rect x="21" y="59" width="8" height="1"/><rect x="33" y="59" width="25" height="1"/><rect x="61" y="59" width="7" height="1"/><rect x="21" y="60" width="9" height="1"/><rect x="39" y="60" width="19" height="1"/><rect x="60" y="60" width="8" height="1"/><rect x="21" y="61" width="11" height="1"/><rect x="44" y="61" width="13" height="1"/><rect x="60" y="61" width="8" height="1"/><rect x="21" y="62" width="12" height="1"/><rect x="42" y="62" width="14" height="1"/><rect x="59" y="62" width="8" height="1"/><rect x="21" y="63" width="12" height="1"/><rect x="36" y="63" width="19" height="1"/><rect x="58" y="63" width="9" height="1"/><rect x="21" y="64" width="12" height="1"/><rect x="36" y="64" width="18" height="1"/><rect x="58" y="64" width="8" height="1"/><rect x="21" y="65" width="12" height="1"/><rect x="36" y="65" width="17" height="1"/><rect x="57" y="65" width="8" height="1"/><rect x="21" y="66" width="12" height="1"/><rect x="36" y="66" width="16" height="1"/><rect x="56" y="66" width="9" height="1"/><rect x="21" y="67" width="12" height="1"/><rect x="36" y="67" width="14" height="1"/><rect x="54" y="67" width="10" height="1"/><rect x="21" y="68" width="12" height="1"/><rect x="36" y="68" width="11" height="1"/><rect x="53" y="68" width="10" height="1"/><rect x="21" y="69" width="12" height="1"/><rect x="51" y="69" width="11" height="1"/><rect x="21" y="70" width="12" height="1"/><rect x="48" y="70" width="13" height="1"/><rect x="21" y="71" width="12" height="1"/><rect x="36" y="71" width="23" height="1"/><rect x="21" y="72" width="12" height="1"/><rect x="36" y="72" width="22" height="1"/><rect x="21" y="73" width="12" height="1"/><rect x="36" y="73" width="20" height="1"/><rect x="21" y="74" width="12" height="1"/><rect x="36" y="74" width="17" height="1"/><rect x="22" y="75" width="11" height="1"/><rect x="36" y="75" width="13" height="1"/></g></svg>
