<svg xmlns="http://www.w3.org/2000/svg" viewBox="0 0 24 24" fill="none" stroke="#2eafff" stroke-width="2.2" stroke-linecap="round" stroke-linejoin="round" role="img" aria-label="DuckLake">
  <path d="M3 8c1.5 0 1.5 1.3 3 1.3S7.5 8 9 8s1.5 1.3 3 1.3S13.5 8 15 8s1.5 1.3 3 1.3S19.5 8 21 8"/>
  <path d="M3 13c1.5 0 1.5 1.3 3 1.3S7.5 13 9 13s1.5 1.3 3 1.3S13.5 13 15 13s1.5 1.3 3 1.3S19.5 13 21 13"/>
  <path d="M3 18c1.5 0 1.5 1.3 3 1.3S7.5 18 9 18s1.5 1.3 3 1.3S13.5 18 15 18s1.5 1.3 3 1.3S19.5 18 21 18"/>
</svg>
