<svg xmlns="http://www.w3.org/2000/svg" width="340" height="56" viewBox="0 0 340 56" role="img" aria-label="Join the Duckle community on Discord">
  <rect width="340" height="56" rx="12" fill="#5865F2"/>

  <!-- Duckle pipeline mark -->
  <circle cx="28" cy="28" r="15" fill="#0c0e12"/>
  <g transform="translate(13.28,13.28) scale(0.46)">
    <line x1="14" y1="16" x2="32" y2="32" stroke="#EA7E42" stroke-width="3.4" stroke-linecap="round"/>
    <line x1="32" y1="32" x2="50" y2="48" stroke="#EA7E42" stroke-width="3.4" stroke-linecap="round"/>
    <rect x="5" y="7" width="18" height="18" rx="5.5" fill="#F6BA78"/>
    <rect x="23" y="23" width="18" height="18" rx="5.5" fill="#EA7E42"/>
    <rect x="41" y="39" width="18" height="18" rx="5.5" fill="#D9742F"/>
  </g>

  <text x="54" y="25" fill="#ffffff" font-family="'Segoe UI',Helvetica,Arial,sans-serif" font-size="15" font-weight="700">Join the Duckle Discord</text>
  <text x="54" y="42" fill="#dfe3ff" font-family="'Segoe UI',Helvetica,Arial,sans-serif" font-size="11">Bug reports, support, feature ideas</text>

  <!-- Discord mark -->
  <g transform="translate(300,17)" fill="#ffffff">
    <path d="M20.317 4.3698a19.7913 19.7913 0 0 0-4.8851-1.5152.0741.0741 0 0 0-.0785.0371c-.211.3753-.4447.8648-.6083 1.2495-1.8447-.2762-3.68-.2762-5.4868 0-.1636-.3933-.4058-.8742-.6177-1.2495a.077.077 0 0 0-.0785-.037 19.7363 19.7363 0 0 0-4.8852 1.515.0699.0699 0 0 0-.0321.0277C.5334 9.0458-.319 13.5799.0992 18.0578a.0824.0824 0 0 0 .0312.0561c2.0528 1.5076 4.0413 2.4228 5.9929 3.0294a.0777.0777 0 0 0 .0842-.0276c.4616-.6304.8731-1.2952 1.226-1.9942a.076.076 0 0 0-.0416-.1057c-.6528-.2476-1.2743-.5495-1.8722-.8923a.077.077 0 0 1-.0076-.1277c.1258-.0943.2517-.1923.3718-.2914a.0743.0743 0 0 1 .0776-.0105c3.9278 1.7933 8.18 1.7933 12.0614 0a.0739.0739 0 0 1 .0785.0095c.1202.099.246.1981.3728.2924a.077.077 0 0 1-.0066.1276 12.2986 12.2986 0 0 1-1.873.8914.0766.0766 0 0 0-.0407.1067c.3604.698.7719 1.3628 1.225 1.9932a.076.076 0 0 0 .0842.0286c1.961-.6067 3.9495-1.5219 6.0023-3.0294a.077.077 0 0 0 .0313-.0552c.5004-5.177-.8382-9.6739-3.5485-13.6604a.061.061 0 0 0-.0312-.0286zM8.02 15.3312c-1.1825 0-2.1569-1.0857-2.1569-2.419 0-1.3332.9555-2.4189 2.157-2.4189 1.2108 0 2.1757 1.0952 2.1568 2.419 0 1.3332-.9555 2.4189-2.1569 2.4189zm7.9748 0c-1.1825 0-2.1569-1.0857-2.1569-2.419 0-1.3332.9554-2.4189 2.1569-2.4189 1.2108 0 2.1757 1.0952 2.1568 2.419 0 1.3332-.946 2.4189-2.1568 2.4189Z"/>
  </g>
</svg>
