<svg xmlns="http://www.w3.org/2000/svg" width="340" height="56" viewBox="0 0 340 56" role="img" aria-label="Join the Duckle community on Discord">
  <rect width="340" height="56" rx="12" fill="#5865F2"/>

  <!-- Duckle pixel D-sloth mark -->
  <circle cx="28" cy="28" r="15" fill="#0c0e12"/>
  <g transform="translate(18.77,17.0) scale(0.3548)" fill="#ff7a45" shape-rendering="crispEdges"><rect x="2" y="1" width="12" height="1"/><rect x="20" y="1" width="6" height="1"/><rect x="1" y="2" width="13" height="1"/><rect x="18" y="2" width="13" height="1"/><rect x="1" y="3" width="13" height="1"/><rect x="17" y="3" width="17" height="1"/><rect x="1" y="4" width="13" height="1"/><rect x="17" y="4" width="19" height="1"/><rect x="1" y="5" width="13" height="1"/><rect x="17" y="5" width="21" height="1"/><rect x="1" y="6" width="13" height="1"/><rect x="17" y="6" width="22" height="1"/><rect x="1" y="7" width="13" height="1"/><rect x="17" y="7" width="24" height="1"/><rect x="1" y="8" width="13" height="1"/><rect x="17" y="8" width="25" height="1"/><rect x="1" y="9" width="13" height="1"/><rect x="17" y="9" width="26" height="1"/><rect x="1" y="10" width="13" height="1"/><rect x="17" y="10" width="5" height="1"/><rect x="29" y="10" width="15" height="1"/><rect x="1" y="11" width="13" height="1"/><rect x="17" y="11" width="2" height="1"/><rect x="32" y="11" width="12" height="1"/><rect x="1" y="12" width="13" height="1"/><rect x="17" y="12" width="1" height="1"/><rect x="34" y="12" width="11" height="1"/><rect x="1" y="13" width="13" height="1"/><rect x="25" y="13" width="4" height="1"/><rect x="35" y="13" width="11" height="1"/><rect x="1" y="14" width="13" height="1"/><rect x="22" y="14" width="10" height="1"/><rect x="37" y="14" width="9" height="1"/><rect x="1" y="15" width="13" height="1"/><rect x="20" y="15" width="14" height="1"/><rect x="38" y="15" width="9" height="1"/><rect x="1" y="16" width="13" height="1"/><rect x="19" y="16" width="16" height="1"/><rect x="38" y="16" width="9" height="1"/><rect x="1" y="17" width="13" height="1"/><rect x="19" y="17" width="17" height="1"/><rect x="39" y="17" width="9" height="1"/><rect x="1" y="18" width="13" height="1"/><rect x="18" y="18" width="19" height="1"/><rect x="40" y="18" width="8" height="1"/><rect x="1" y="19" width="13" height="1"/><rect x="17" y="19" width="20" height="1"/><rect x="40" y="19" width="9" height="1"/><rect x="1" y="20" width="13" height="1"/><rect x="17" y="20" width="2" height="1"/><rect x="24" y="20" width="6" height="1"/><rect x="33" y="20" width="5" height="1"/><rect x="41" y="20" width="8" height="1"/><rect x="1" y="21" width="13" height="1"/><rect x="17" y="21" width="1" height="1"/><rect x="24" y="21" width="5" height="1"/><rect x="35" y="21" width="4" height="1"/><rect x="41" y="21" width="8" height="1"/><rect x="1" y="22" width="13" height="1"/><rect x="20" y="22" width="2" height="1"/><rect x="24" y="22" width="5" height="1"/><rect x="31" y="22" width="2" height="1"/><rect x="36" y="22" width="3" height="1"/><rect x="42" y="22" width="8" height="1"/><rect x="1" y="23" width="13" height="1"/><rect x="23" y="23" width="7" height="1"/><rect x="36" y="23" width="4" height="1"/><rect x="42" y="23" width="8" height="1"/><rect x="1" y="24" width="13" height="1"/><rect x="22" y="24" width="2" height="1"/><rect x="28" y="24" width="3" height="1"/><rect x="37" y="24" width="3" height="1"/><rect x="42" y="24" width="8" height="1"/><rect x="1" y="25" width="13" height="1"/><rect x="20" y="25" width="4" height="1"/><rect x="28" y="25" width="4" height="1"/><rect x="38" y="25" width="2" height="1"/><rect x="43" y="25" width="7" height="1"/><rect x="1" y="26" width="13" height="1"/><rect x="19" y="26" width="4" height="1"/><rect x="24" y="26" width="9" height="1"/><rect x="38" y="26" width="3" height="1"/><rect x="43" y="26" width="7" height="1"/><rect x="1" y="27" width="13" height="1"/><rect x="18" y="27" width="6" height="1"/><rect x="28" y="27" width="6" height="1"/><rect x="38" y="27" width="3" height="1"/><rect x="43" y="27" width="7" height="1"/><rect x="1" y="28" width="13" height="1"/><rect x="18" y="28" width="16" height="1"/><rect x="37" y="28" width="4" height="1"/><rect x="43" y="28" width="8" height="1"/><rect x="1" y="29" width="13" height="1"/><rect x="19" y="29" width="15" height="1"/><rect x="37" y="29" width="4" height="1"/><rect x="43" y="29" width="8" height="1"/><rect x="1" y="30" width="13" height="1"/><rect x="20" y="30" width="13" height="1"/><rect x="36" y="30" width="5" height="1"/><rect x="43" y="30" width="8" height="1"/><rect x="1" y="31" width="13" height="1"/><rect x="21" y="31" width="11" height="1"/><rect x="36" y="31" width="5" height="1"/><rect x="43" y="31" width="8" height="1"/><rect x="1" y="32" width="13" height="1"/><rect x="23" y="32" width="7" height="1"/><rect x="35" y="32" width="6" height="1"/><rect x="43" y="32" width="8" height="1"/><rect x="1" y="33" width="11" height="1"/><rect x="33" y="33" width="8" height="1"/><rect x="43" y="33" width="8" height="1"/><rect x="1" y="34" width="9" height="1"/><rect x="31" y="34" width="10" height="1"/><rect x="43" y="34" width="8" height="1"/><rect x="1" y="35" width="8" height="1"/><rect x="13" y="35" width="28" height="1"/><rect x="43" y="35" width="8" height="1"/><rect x="1" y="36" width="7" height="1"/><rect x="11" y="36" width="30" height="1"/><rect x="43" y="36" width="7" height="1"/><rect x="1" y="37" width="7" height="1"/><rect x="10" y="37" width="31" height="1"/><rect x="43" y="37" width="7" height="1"/><rect x="1" y="38" width="6" height="1"/><rect x="10" y="38" width="31" height="1"/><rect x="43" y="38" width="7" height="1"/><rect x="1" y="39" width="6" height="1"/><rect x="9" y="39" width="31" height="1"/><rect x="43" y="39" width="7" height="1"/><rect x="1" y="40" width="6" height="1"/><rect x="9" y="40" width="31" height="1"/><rect x="42" y="40" width="8" height="1"/><rect x="1" y="41" width="6" height="1"/><rect x="10" y="41" width="30" height="1"/><rect x="42" y="41" width="7" height="1"/><rect x="1" y="42" width="7" height="1"/><rect x="10" y="42" width="29" height="1"/><rect x="42" y="42" width="7" height="1"/><rect x="1" y="43" width="7" height="1"/><rect x="11" y="43" width="28" height="1"/><rect x="41" y="43" width="8" height="1"/><rect x="1" y="44" width="8" height="1"/><rect x="13" y="44" width="25" height="1"/><rect x="41" y="44" width="7" height="1"/><rect x="1" y="45" width="9" height="1"/><rect x="19" y="45" width="19" height="1"/><rect x="40" y="45" width="8" height="1"/><rect x="1" y="46" width="11" height="1"/><rect x="24" y="46" width="13" height="1"/><rect x="40" y="46" width="8" height="1"/><rect x="1" y="47" width="12" height="1"/><rect x="22" y="47" width="14" height="1"/><rect x="39" y="47" width="8" height="1"/><rect x="1" y="48" width="12" height="1"/><rect x="16" y="48" width="19" height="1"/><rect x="38" y="48" width="9" height="1"/><rect x="1" y="49" width="12" height="1"/><rect x="16" y="49" width="18" height="1"/><rect x="38" y="49" width="8" height="1"/><rect x="1" y="50" width="12" height="1"/><rect x="16" y="50" width="17" height="1"/><rect x="37" y="50" width="8" height="1"/><rect x="1" y="51" width="12" height="1"/><rect x="16" y="51" width="16" height="1"/><rect x="36" y="51" width="9" height="1"/><rect x="1" y="52" width="12" height="1"/><rect x="16" y="52" width="14" height="1"/><rect x="34" y="52" width="10" height="1"/><rect x="1" y="53" width="12" height="1"/><rect x="16" y="53" width="11" height="1"/><rect x="33" y="53" width="10" height="1"/><rect x="1" y="54" width="12" height="1"/><rect x="31" y="54" width="11" height="1"/><rect x="1" y="55" width="12" height="1"/><rect x="28" y="55" width="13" height="1"/><rect x="1" y="56" width="12" height="1"/><rect x="16" y="56" width="23" height="1"/><rect x="1" y="57" width="12" height="1"/><rect x="16" y="57" width="22" height="1"/><rect x="1" y="58" width="12" height="1"/><rect x="16" y="58" width="20" height="1"/><rect x="1" y="59" width="12" height="1"/><rect x="16" y="59" width="17" height="1"/><rect x="2" y="60" width="11" height="1"/><rect x="16" y="60" width="13" height="1"/></g>

  <text x="54" y="25" fill="#ffffff" font-family="'Segoe UI',Helvetica,Arial,sans-serif" font-size="15" font-weight="700">Join the Duckle Discord</text>
  <text x="54" y="42" fill="#dfe3ff" font-family="'Segoe UI',Helvetica,Arial,sans-serif" font-size="11">Bug reports, support, feature ideas</text>

  <!-- Discord mark -->
  <g transform="translate(300,17)" fill="#ffffff">
    <path d="M20.317 4.3698a19.7913 19.7913 0 0 0-4.8851-1.5152.0741.0741 0 0 0-.0785.0371c-.211.3753-.4447.8648-.6083 1.2495-1.8447-.2762-3.68-.2762-5.4868 0-.1636-.3933-.4058-.8742-.6177-1.2495a.077.077 0 0 0-.0785-.037 19.7363 19.7363 0 0 0-4.8852 1.515.0699.0699 0 0 0-.0321.0277C.5334 9.0458-.319 13.5799.0992 18.0578a.0824.0824 0 0 0 .0312.0561c2.0528 1.5076 4.0413 2.4228 5.9929 3.0294a.0777.0777 0 0 0 .0842-.0276c.4616-.6304.8731-1.2952 1.226-1.9942a.076.076 0 0 0-.0416-.1057c-.6528-.2476-1.2743-.5495-1.8722-.8923a.077.077 0 0 1-.0076-.1277c.1258-.0943.2517-.1923.3718-.2914a.0743.0743 0 0 1 .0776-.0105c3.9278 1.7933 8.18 1.7933 12.0614 0a.0739.0739 0 0 1 .0785.0095c.1202.099.246.1981.3728.2924a.077.077 0 0 1-.0066.1276 12.2986 12.2986 0 0 1-1.873.8914.0766.0766 0 0 0-.0407.1067c.3604.698.7719 1.3628 1.225 1.9932a.076.076 0 0 0 .0842.0286c1.961-.6067 3.9495-1.5219 6.0023-3.0294a.077.077 0 0 0 .0313-.0552c.5004-5.177-.8382-9.6739-3.5485-13.6604a.061.061 0 0 0-.0312-.0286zM8.02 15.3312c-1.1825 0-2.1569-1.0857-2.1569-2.419 0-1.3332.9555-2.4189 2.157-2.4189 1.2108 0 2.1757 1.0952 2.1568 2.419 0 1.3332-.9555 2.4189-2.1569 2.4189zm7.9748 0c-1.1825 0-2.1569-1.0857-2.1569-2.419 0-1.3332.9554-2.4189 2.1569-2.4189 1.2108 0 2.1757 1.0952 2.1568 2.419 0 1.3332-.946 2.4189-2.1568 2.4189Z"/>
  </g>
</svg>
